<svg id="Layer_1" data-name="Layer 1" xmlns="http://www.w3.org/2000/svg" viewBox="0 0 24 24"><defs><style>.cls-1{fill:none;stroke:#000;stroke-miterlimit:10;stroke-width:0.6px;}</style></defs><path class="cls-1" d="M12.88.34c.52.13,1,.23,1.55.39a7.54,7.54,0,0,1,5.38,7.48,10.65,10.65,0,0,1-1.23,4.39c-1.09,2.1-2.25,4.17-3.45,6.22-.9,1.55-1.9,3-2.86,4.55-.07.12-.16.23-.26.37a.66.66,0,0,1-.14-.17c-1.84-3-3.7-6-5.48-9a17.29,17.29,0,0,1-2-5.05,7.57,7.57,0,0,1,5.91-9l.84-.19a4.33,4.33,0,0,1,.94-.08A3.93,3.93,0,0,1,12.88.34Z"/><path d="M9.31,13.07,8,12.11V5.74l1.35.61ZM10.2,6.4v6.79L16,12.31V5.56Zm2.68-3.54A1.91,1.91,0,0,0,11.1,4.78v.75a.23.23,0,0,0,.45,0V4.78a1.47,1.47,0,0,1,1.33-1.47.87.87,0,0,1,.62.25,1.1,1.1,0,0,1,.3.78v.78a.22.22,0,1,0,.44,0V4.34A1.38,1.38,0,0,0,12.88,2.86ZM10,5.55a.22.22,0,0,0,.19-.22v-1a1.47,1.47,0,0,1,1.33-1.47h.08a2.17,2.17,0,0,1,.53-.31,1.34,1.34,0,0,0-.61-.15A1.9,1.9,0,0,0,9.76,4.33v1A.22.22,0,0,0,10,5.55Z"/></svg>